<?xml version="1.0" encoding="utf-8"?>
<!-- Designed by Vexels.com - 2016 All Rights Reserved - https://vexels.com/terms-and-conditions/  -->

<svg version="1.0" id="Capa_1" xmlns="http://www.w3.org/2000/svg" xmlns:xlink="http://www.w3.org/1999/xlink" x="0px" y="0px"
	 width="1200px" height="1200px" viewBox="0 0 1200 1200" enable-background="new 0 0 1200 1200" xml:space="preserve">
<g>
	<g>
		<polygon fill="#2B3B4F" points="1019.549,1018.415 646.125,601.922 631.421,614.758 1018.895,1047.33 1034.363,1033.825 		"/>
		<polygon fill="#324B69" points="1015.114,1023.291 641.694,606.797 626.996,619.623 1014.464,1052.195 1029.943,1038.679 		"/>
		<polygon fill="#D8D9D8" points="1011.175,1052.122 859.257,882.691 853.268,887.901 1010.903,1063.89 1017.195,1058.388 		"/>
		<polygon fill="#D8D9D8" points="1163.872,928.574 1027.369,1069.215 1010.73,1050.615 1155.786,923.993 		"/>
		<path fill="#2E2A26" d="M1058.585,1056.275c-16.502-18.893-45.214-20.86-64.117-4.342c-18.914,16.508-20.859,45.203-4.351,64.107
			c16.513,18.914,45.219,20.86,64.127,4.351C1073.148,1103.894,1075.109,1075.178,1058.585,1056.275z"/>
		<path fill="#2E2A26" d="M1058.585,1056.275c-16.502-18.893-45.214-20.86-64.117-4.342c-18.914,16.508-20.859,45.203-4.351,64.107
			c16.513,18.914,45.219,20.86,64.127,4.351C1073.148,1103.894,1075.109,1075.178,1058.585,1056.275z"/>
		<path fill="#DCDBDB" d="M1042.35,1070.46c-8.678-9.938-23.763-10.953-33.696-2.281c-9.934,8.673-10.953,23.758-2.281,33.675
			c8.666,9.927,23.747,10.974,33.68,2.29C1049.986,1095.483,1051.016,1080.398,1042.35,1070.46z"/>
		<g>
			<g>
				<path fill="#B99D6D" d="M1186.563,891.74c1.679,1.914,1.475,4.854-0.445,6.517l-155.506,135.745
					c-1.905,1.664-4.849,1.475-6.517-0.45L881.596,870.326c-1.664-1.925-1.475-4.844,0.445-6.528l155.496-135.735
					c1.915-1.673,4.855-1.486,6.523,0.439L1186.563,891.74z"/>
			</g>
			<g>
				<path fill="#9C7C4D" d="M997.759,756.664c1.668,1.905,1.464,4.844-0.445,6.508l-112.956,98.607
					c-1.909,1.674-4.843,1.475-6.512-0.439l-60.099-68.856c-1.68-1.914-1.48-4.854,0.434-6.517l112.95-98.608
					c1.915-1.664,4.85-1.475,6.517,0.45L997.759,756.664z"/>
			</g>
			<g>
				<path fill="#B99D6D" d="M994.939,754.154c1.668,1.925,1.459,4.854-0.455,6.527l-112.96,98.608
					c-1.899,1.664-4.839,1.464-6.507-0.46l-60.106-68.835c-1.668-1.925-1.475-4.855,0.434-6.528l112.956-98.608
					c1.914-1.673,4.843-1.464,6.517,0.45L994.939,754.154z"/>
			</g>
		</g>
		<path fill="#D8D9D8" d="M907.038,941.442c0.277,4.393-3.059,8.201-7.485,8.484c-4.404,0.282-8.212-3.086-8.495-7.501
			c-0.261-4.394,3.076-8.202,7.49-8.484C902.963,933.659,906.766,937.028,907.038,941.442z"/>
		<path fill="#D8D9D8" d="M974.932,1022.088c0.288,4.393-3.07,8.201-7.485,8.473c-4.425,0.283-8.223-3.076-8.484-7.479
			c-0.283-4.416,3.076-8.202,7.49-8.495C970.851,1014.304,974.66,1017.662,974.932,1022.088z"/>
	</g>
	<path fill="#BC8350" d="M472.761,436.781c62.71,57.715,105.449,91.849,150.422,108.724c33.392,12.512,57.599,30.045,60.11,37.556
		c2.495,7.501,2.495,32.545-2.511,35.893c-5.006,3.337-15.027,6.674-15.027,6.674s-22.539-55.089-35.882-62.59
		c-13.359-7.521-122.685-66.774-134.365-75.121c-11.68-8.348-30.056-30.892-30.056-30.892L472.761,436.781z"/>
	<path fill="#B8B4B1" d="M695.156,1024.514c0,0,2.495,6.078,1.094,13.475c-1.413,7.396-26.055,41.552-64.798,62.527
		c-38.774,20.953-79.84,28.789-79.84,28.789s-3.829-2.114-3.578-4.561c0.241-2.448,63.595-17.607,91.374-37.692
		c27.78-20.075,43.022-36.635,48.368-45.108C693.122,1033.469,695.156,1024.514,695.156,1024.514z"/>
	<path fill="#F3EFEE" d="M591.046,1044.287c0,0,34.015-4.625,54.309-13.684c26.425-11.79,42.185-14.604,48.864-8.087
		c6.68,6.528-11.032,40.412-56.93,68.271c-43.932,26.676-89.256,33.957-89.256,33.957s-13.411-4.32-19.269-22.649
		c-4.32-13.589-3.117-20.472-3.117-20.472s27.503-0.345,43.288-9.75C584.702,1062.489,591.046,1044.287,591.046,1044.287z"/>
	<path fill="#B8B4B1" d="M19.005,1028.019c0,0,9.163,50.706,35.029,81.556c25.861,30.85,60.048,44.533,70.169,44.177
		c10.106-0.356,18.721-4.781,18.721-4.781s-0.754,5.828-5.697,8.976c-10.518,6.706-35.229,4.237-63.468-15.996
		c-28.24-20.242-37.655-41.698-45.909-56.762c-8.25-15.064-15.551-51.595-15.551-51.595S13.449,1027.538,19.005,1028.019z"/>
	<path fill="#F3EFEE" d="M101.539,1062.217c0,0-1.538,23.391,17.271,40.736c28.512,26.258,28.439,42.693,21.55,48.278
		c-11.993,9.74-60.942-0.22-91.201-42.975c-28.973-40.914-31.216-78.543-31.216-78.543s7.893-13.683,20.619-19.636
		c12.202-5.733,22.136-5.073,22.136-5.073s2.651,22.889,12.877,37.586C83.796,1057.3,101.539,1062.217,101.539,1062.217z"/>
	<polygon fill="#BB7B43" points="422.526,293.378 414.58,333.748 356.996,305.952 364.346,276.107 	"/>
	<path fill="#2E251E" d="M403.042,643.956c0,0,82.721,96.076,124.237,180.676c35.82,72.998,71.905,218.953,71.905,218.953
		s-13.976,28.465-34.752,34.617c-20.76,6.162-38.785,3.42-38.785,3.42s-28.058-127.408-83.225-198.23
		c-51.526-66.115-94.768-118.034-111.443-116.685c-16.68,1.35-16.324,105.606-72.852,172.371
		c-40.882,48.268-157.332,127.209-157.332,127.209s-46.558-15.671-48.702-60.707c0,0,107.762-86.181,130.327-139.48
		c22.548-53.3,28.674-129.887,28.674-129.887s-6.088-42.818,1.669-71.419c7.767-28.602,22.711-32.2,22.711-32.2
		S386.377,652.575,403.042,643.956z"/>
	<g>
		<path fill="#D89D61" d="M481.982,139.755c0,0,0.424,49.209,6.628,52.724c6.209,3.527,30.118,9.28,31.137,20.515
			c1.025,11.224-26.75,18.035-26.75,18.035s1.763,43.194-24.421,55.403c-26.18,12.229-69.991,11.026-106.899-6.319
			c-26.273-12.334-53.995-31.54-60.507-59.818c-6.523-28.287-11.371-73.239,16.33-114.916
			c27.702-41.668,114.096-33.382,138.894-15.158C485.613,111.708,481.982,139.755,481.982,139.755z"/>
		<path fill="#BB7B43" d="M519.747,212.994c-0.167-1.956-1.051-3.725-2.39-5.367c-0.157,1.056,1.574,12.073-19.699,19.082
			c-13.777,4.54-21.602,0.031-21.602,0.031s3.264,6.371,16.942,4.289C492.998,231.029,520.773,224.219,519.747,212.994z"/>
		<path fill="#BB7B43" d="M380.963,205.671c0,0-1.799-11.674-12.794-15.043c-11.005-3.358-16.11,2.762-16.758,7.521
			c-0.638,4.761,0.742,8.809,0.742,8.809s0.559-10.743,5.859-12.868c5.298-2.112,12.768,7.856,12.768,7.856
			s-3.589-0.187-6.397,0.063c-2.803,0.261-8.228,4.759-8.228,4.759s11.209-0.617,15.415,2.794c4.211,3.42,0.942,12.825,0.942,12.825
			S383.124,217.754,380.963,205.671z"/>
		<g>
			<g>
				<path fill="#C1844C" d="M444.824,184.916c0.156,10.943,3.117,19.301,13.558,19.583c10.419,0.303,13.144-9.049,12.988-19.981
					c-0.162-10.921-6.235-19.699-13.557-19.594C450.473,165.039,444.662,173.995,444.824,184.916z"/>
				<g>
					<path fill="#E8DDD4" d="M446.503,183.138c0.141,9.969,2.762,17.596,11.946,17.867c9.195,0.283,11.586-8.254,11.434-18.223
						c-0.141-9.959-5.487-17.962-11.936-17.857C451.478,165.029,446.362,173.179,446.503,183.138z"/>
					<g>
						<path fill="#262B29" d="M449.364,188.378c0.288,5.9,5.089,10.44,10.718,10.158c5.634-0.294,9.734-5.492,9.446-11.371
							c-0.292-5.9-4.875-10.263-10.502-9.981C453.382,177.479,449.067,182.479,449.364,188.378z"/>
						<path fill="#1D1A18" d="M456.007,187.134c0.105,2.009,1.815,3.567,3.829,3.463c2.019-0.105,3.567-1.81,3.484-3.85
							c-0.109-2.009-1.836-3.578-3.839-3.473C457.451,183.378,455.908,185.094,456.007,187.134z"/>
					</g>
				</g>
				<path fill="#FFFFFF" d="M451.551,185.575c0.063,1.339,1.198,2.364,2.521,2.302c1.339-0.074,2.355-1.203,2.297-2.532
					c-0.068-1.339-1.208-2.364-2.531-2.29C452.508,183.117,451.482,184.247,451.551,185.575z"/>
				<path fill="#5E3414" d="M470.564,185.481c0,0-3.714-19.028-12.904-19.416c-9.206-0.376-13.683,11.361-13.683,11.361
					s1.621-13.307,11.209-14.646C464.763,161.441,469.878,171.85,470.564,185.481z"/>
			</g>
			<path fill="#5E3414" d="M435.686,166.452c0,0,4.483-9.436,14.903-10.901c10.393-1.464,23.464,9.876,23.464,9.876
				s-5.283-12.784-16.927-14.196C438.26,148.919,435.686,166.452,435.686,166.452z"/>
		</g>
		<path fill="#7D3D23" d="M443.495,241.804c0,0,13.564,7.889,29.135,7.501c15.592-0.387,8.588,4.311-2.563,3.463
			c-21.33-1.633-26.712-8.568-26.712-8.568s-4.175,3.765-4.055,1.381c0.136-2.386,2.961-11.026,4.897-9.729
			C446.116,237.159,443.495,241.804,443.495,241.804z"/>
		<path fill="#5E3414" d="M460.678,89.645c-28.554-13.714-77.92-16.277-121.323-0.418c-43.393,15.827-51.993,57.809-51.742,92.163
			c0.334,45.977,23.009,73.239,41.583,86.734c2.244,3.671,4.436,8.713,2.783,11.152c-3.636,5.335-11.021,3.076-11.021,3.076
			s3.384,7.072,10.482,7.239c12.507,0.292,17.261-6.622,17.261-6.622s2.312,1.8,1.282,7.375c-0.555,3.034-3.892,6.59-3.892,6.59
			s9.085-2.573,16.921-12.166c14.697-17.941,11.297-48.457,6.193-52.442c-5.126-3.986-21.189-2.155-26.006-22.105
			c-3.886-16.079,8.499-30.432,24.898-28.507c16.392,1.914,22.334,20.859,22.334,20.859s3.217-0.376,6.042-3.431
			c2.803-3.044,1.103-8.41,4.09-14.646c2.977-6.235,9.373-9.132,11.795-14.855c2.427-5.732-4.614-11.465-1.292-24.072
			c3.306-12.594,17.596-23.517,45.7-21.529c12.214,0.868,27.608,1.433,27.608,1.433S476.998,97.481,460.678,89.645z"/>
		<path fill="#7C451C" d="M311.627,195.492c0,0-2.406,13.118-1.48,19.835c0.905,6.716,4.431,18.338,4.431,18.338
			s-8.553-12.512-8.103-21.08C306.918,204.04,311.627,195.492,311.627,195.492z"/>
		<path fill="#7C451C" d="M325.875,196.81c0,0,0.454,10.378,2.709,15.17c2.25,4.801,7.982,12.647,7.982,12.647
			s-10.649-7.323-11.999-13.83C323.212,204.311,325.875,196.81,325.875,196.81z"/>
		<path fill="#7C451C" d="M325.65,229.355c0,0,3.876,9.625,7.595,13.412c3.724,3.765,11.732,9.268,11.732,9.268
			s-12.486-3.368-15.912-9.049C325.629,237.306,325.65,229.355,325.65,229.355z"/>
		<path fill="#7C451C" d="M381.042,168.429c0,0,7.066,8.516,8.154,11.717c1.083,3.19,1.538,6.34,1.538,6.34s1.37-8.076,0.376-13.14
			c-0.989-5.063-4.948-7.156-4.948-7.156L381.042,168.429z"/>
		<g>
			<path fill="#5E1C1C" d="M290.447,199.081c0,0-2.735,0.272-5.868-3.652c-3.133-3.923-13.098-75.665,11.449-104.403
				c27.817-32.544,81.792-50.423,105.361-52.076c23.626-1.653,49.011,5.011,65.085,32.179c13.38,22.586,20.624,44.272,19.913,48.373
				c-0.733,4.08-50.994,27.377-86.478,43.551C357.834,182.238,290.447,199.081,290.447,199.081z"/>
			<path fill="#511A19" d="M423.237,151.817c0,0,29.355-16.132,43.613-29.188c8.876-8.118,14.882-20.42,14.882-20.42
				s54.268-2.437,58.494,5.147c4.222,7.594-9.085,27.146-37.849,33.507C480.356,145.728,423.237,151.817,423.237,151.817z"/>
		</g>
	</g>
	<path fill="#5E1C1C" d="M233.962,573.384c-6.172,18.495-19.238,65.978-6.926,73.165c12.334,7.187,94.732,33.12,140.949,30.035
		c46.202-3.077,56.548-33.247,60.654-50.696c4.106-17.47,12.324-113.996,12.324-113.996s10.262-47.242,18.48-55.454
		c8.217-8.212,16.44-19.51,16.44-19.51s-25.562-54.189-34.931-72.925c-12.313-24.636-30.745-58.437-67.71-62.537
		c-36.969-4.101-77.084,31.729-106.861,117.992C236.599,505.731,240.119,554.899,233.962,573.384z"/>
	<path fill="#D89D61" d="M443.517,471.815c13.149-11.329,29.459-30.64,29.459-30.64s8.337,17.271,59.252,55.088
		c58.416,43.404,136.865,72.602,140.202,90.961c3.348,18.369,3.348,38.403-3.337,41.73c-6.674,3.348-35.051,12.522-41.714,10.858
		c-6.686-1.673-11.69-9.185-13.375-16.685c-1.657-7.521,0-14.196,3.353-15.022c3.337-0.847-11.68-16.707-10.848-24.208
		c0,0-82.413-23.056-114.953-42.253c-32.556-19.186-66.152-58.74-66.152-58.74S430.346,483.155,443.517,471.815z"/>
	<path fill="#4F1D1C" d="M350.548,303.693c0,0,6.224-7.564,10.686-7.564c4.441,0,35.125,4.447,49.362,13.349
		c14.238,8.882,17.784,19.563,17.784,19.563l1.789,15.127c0,0-19.572-28.026-42.708-34.69
		C364.346,302.793,350.548,303.693,350.548,303.693z"/>
	<path fill="#4F1D1C" d="M353.157,403.797c0,0,13.862,24.647,33.895,48.541c20.022,23.862,35.427,32.346,35.427,32.346
		s13.087-8.484,28.492-23.119c15.41-14.615,24.914-24.636,24.914-24.636s-10.273,16.173-21.827,29.26
		c-11.554,13.098-33.889,28.508-33.889,28.508s-20.823-16.268-34.658-33.131C360.862,431.53,353.157,403.797,353.157,403.797z"/>
	<path fill="#BC8350" d="M612.528,584.347c0,0,4.902,8.892,11.57,12.449c6.675,3.567,18.684-2.217,22.685-0.428
		c4.001,1.768,8.448,9.771,8.448,9.771l7.113-0.439c0,0-7.558,4.446-6.669,8.452c0.9,3.997,2.662,10.681,2.662,10.681
		s-11.115-0.45-14.661,1.318c-3.563,1.789-10.231,3.128-11.576,2.239c-1.328-0.9-6.675-6.674-6.23-8.902
		c0.455-2.228,1.994-7.208,0.335-8.275c-1.664-1.067-7.893-3.745-7.893-3.745s-7.125-10.221-7.998-13.338
		c-0.9-3.107-2.673-9.781-2.673-9.781s-80.509-22.241-113.871-41.363c-33.361-19.134-64.049-54.712-64.049-54.712l5.785-4.436
		c0,0,46.705,44.471,73.386,58.709c26.686,14.227,102.75,38.696,102.75,38.696L612.528,584.347z"/>
	<path fill="#D9D5D2" d="M652.914,611.212c0,7.365-5.979,13.349-13.349,13.349c-7.375,0-13.359-5.984-13.359-13.349
		c0-7.375,5.984-13.359,13.359-13.359C646.936,597.852,652.914,603.836,652.914,611.212z"/>
	<g>
		<polygon fill="#FFFFFF" points="1170.776,896.27 1142.892,921.188 1124.303,900.36 1152.171,875.452 		"/>
		<path fill="#312F2D" d="M1143.373,916.596l0.936-0.847l-14.849-16.613l-0.958,0.838L1143.373,916.596z M1158.888,902.735
			l0.764-0.691l-14.85-16.622l-0.764,0.679L1158.888,902.735z M1150.445,910.289l0.942-0.847l-14.865-16.623l-0.936,0.837
			L1150.445,910.289z M1155.383,905.863l0.947-0.837l-14.849-16.645l-0.952,0.847L1155.383,905.863z M1152.407,908.531l1.778-1.59
			l-14.86-16.634l-1.773,1.591L1152.407,908.531z M1150.116,880.661l14.865,16.634l0.936-0.838l-14.86-16.633L1150.116,880.661z
			 M1162.58,899.429l0.952-0.837l-14.856-16.634l-0.946,0.847L1162.58,899.429z M1144.744,915.373l0.229-0.199l-14.86-16.633
			l-0.229,0.209L1144.744,915.373z M1146.397,913.898l0.22-0.189l-14.85-16.644l-0.23,0.209L1146.397,913.898z M1147.559,912.872
			l0.214-0.21l-14.851-16.633l-0.225,0.209L1147.559,912.872z M1145.706,914.859l0.214-0.189l-14.86-16.644l-0.22,0.21
			L1145.706,914.859z M1161.173,901.041l0.272-0.241l-14.865-16.633l-0.256,0.24L1161.173,901.041z M1164.437,898.132l0.262-0.241
			l-14.865-16.633l-0.257,0.241L1164.437,898.132z M1149.232,911.355l0.225-0.189l-14.849-16.633l-0.23,0.198L1149.232,911.355z
			 M1158.124,903.416l0.22-0.199l-14.849-16.633l-0.22,0.188L1158.124,903.416z M1154.865,906.323l0.225-0.187l-14.85-16.634
			l-0.224,0.199L1154.865,906.323z"/>
	</g>
	<path fill="#FFFFFF" d="M1022.515,1068.64c10.865,0,19.683,8.651,19.683,19.322c0,3.348-0.869,6.465-2.38,9.195
		c3.123-3.4,5.038-7.909,5.038-12.868c0-10.671-8.798-19.311-19.679-19.311c-7.463,0-13.96,4.08-17.292,10.106
		C1011.489,1071.151,1016.693,1068.64,1022.515,1068.64z"/>
</g>
</svg>
