<svg height="476pt" viewBox="0 0 476 476.91137" width="476pt" xmlns="http://www.w3.org/2000/svg"><path d="m288.457031 368.246094h16v100.664062h-16zm0 0" fill="#ebebeb"/><path d="m328.457031 476.910156h-64c-4.421875 0-8-3.582031-8-8 0-4.417968 3.578125-8 8-8h64c4.417969 0 8 3.582032 8 8 0 4.417969-3.582031 8-8 8zm0 0" fill="#ebebeb"/><path d="m414.121094 368.246094h16v100.664062h-16zm0 0" fill="#ebebeb"/><path d="m288.457031 368.246094h16v32h-16zm0 0" fill="#dbdbdb"/><path d="m414.121094 368.246094h16v32h-16zm0 0" fill="#dbdbdb"/><path d="m454.121094 476.910156h-64c-4.421875 0-8-3.582031-8-8 0-4.417968 3.578125-8 8-8h64c4.417968 0 8 3.582032 8 8 0 4.417969-3.582032 8-8 8zm0 0" fill="#ebebeb"/><path d="m296.457031 380.910156c-12.507812 0-24.464843-5.128906-33.085937-14.191406-8.617188-9.058594-13.140625-21.261719-12.515625-33.75l5.601562-112.058594h80l5.597657 112.058594c.628906 12.488281-3.898438 24.691406-12.515626 33.75-8.617187 9.0625-20.578124 14.191406-33.082031 14.191406zm0 0" fill="#ebebeb"/><path d="m422.121094 380.910156c-12.507813 0-24.464844-5.132812-33.082032-14.191406-8.617187-9.0625-13.144531-21.261719-12.519531-33.75l5.601563-112.058594h80l5.597656 112.058594c.628906 12.488281-3.898438 24.691406-12.515625 33.75-8.617187 9.0625-20.578125 14.191406-33.082031 14.191406zm0 0" fill="#ebebeb"/><path d="m292.390625 278.550781c-11.925781-5.945312-25.488281-7.765625-38.558594-5.175781l-2.976562 59.59375c-.835938 16.828125 7.667969 32.75 22.121093 41.417969 14.453126 8.664062 32.503907 8.664062 46.957032 0 14.453125-8.667969 22.957031-24.589844 22.121094-41.417969l-2.574219-51.617188c-15.425781 5.511719-32.425781 4.5-47.089844-2.800781zm0 0" fill="#ff5a4b"/><path d="m292.390625 286.550781c-11.925781-5.945312-25.488281-7.765625-38.558594-5.175781l-2.871093 57.375c1.617187 23.9375 21.503906 42.523438 45.496093 42.523438 23.988281 0 43.875-18.585938 45.496094-42.523438l-2.472656-49.398438c-15.425781 5.511719-32.425781 4.5-47.089844-2.800781zm0 0" fill="#ee5446"/><path d="m418.054688 278.550781c-11.925782-5.945312-25.488282-7.765625-38.558594-5.175781l-2.984375 59.59375c-.894531 16.867188 7.597656 32.851562 22.074219 41.550781 14.476562 8.703125 32.574218 8.703125 47.050781 0 14.476562-8.699219 22.96875-24.683593 22.074219-41.550781l-2.582032-51.617188c-15.417968 5.507813-32.417968 4.5-47.074218-2.800781zm0 0" fill="#ff5a4b"/><path d="m418.054688 286.550781c-11.925782-5.945312-25.488282-7.765625-38.558594-5.175781l-2.871094 57.375c1.648438 23.910156 21.523438 42.464844 45.492188 42.464844 23.964843 0 43.839843-18.554688 45.488281-42.464844l-2.46875-49.398438c-15.421875 5.511719-32.421875 4.5-47.082031-2.800781zm0 0" fill="#ee5446"/><path d="m184.457031 354.359375-86.515625 29.113281-22.285156-2.5625-41.335938-169.351562c-5.167968-21.175782-2.972656-43.484375 6.222657-63.246094l7.398437-15.921875-13.269531-54.398437 46.632813-11.375 13.269531 54.398437 13.882812 10.710937c17.261719 13.3125 29.480469 32.101563 34.644531 53.28125zm0 0" fill="#6f7478"/><path d="m84.347656 214.09375 62.175782-15.171875 11.378906 46.632813-62.175782 15.171874zm0 0" fill="#ebebeb"/><path d="m95.722656 260.71875 62.175782-15.171875 7.585937 31.089844-62.175781 15.171875zm0 0" fill="#dc4d41"/><path d="m95.730469 260.726562 62.175781-15.171874 1.960938 8.039062-62.175782 15.171875zm0 0" fill="#da922a"/><path d="m65.941406 37.421875-31.085937 7.585937-5.6875-23.296874c-1.046875-4.289063 1.582031-8.613282 5.871093-9.664063l15.542969-3.792969c4.292969-1.046875 8.625 1.582032 9.671875 5.875zm0 0" fill="#bd9070"/><path d="m27.082031 46.90625 46.632813-11.378906c8.585937-2.09375 17.242187 3.167968 19.335937 11.753906 2.097657 8.582031-3.164062 17.242188-11.75 19.335938l-46.632812 11.378906c-8.582031 2.09375-17.242188-3.167969-19.335938-11.75-2.09375-8.585938 3.167969-17.242188 11.75-19.339844zm0 0" fill="#6f7478"/><path d="m84.792969 80.910156-3.488281-14.292968-46.632813 11.375 3.488281 14.304687zm0 0" fill="#62666a"/><path d="m94.574219 121.015625-21.414063 13.464844-25.21875-2.089844-11.375-46.632813 46.632813-11.375zm0 0" fill="#ee5446"/><g fill="#f3af3e"><path d="m192.457031 124.910156h16v16h-16zm0 0"/><path d="m168.457031 148.910156h16v16h-16zm0 0"/><path d="m216.457031 148.910156h16v16h-16zm0 0"/><path d="m192.457031 172.910156h16v16h-16zm0 0"/></g><path d="m352.457031 68.910156h16v16h-16zm0 0" fill="#fbb540"/><path d="m320.457031 100.910156h16v16h-16zm0 0" fill="#fbb540"/><path d="m384.457031 100.910156h16v16h-16zm0 0" fill="#fbb540"/><path d="m352.457031 132.910156h16v16h-16zm0 0" fill="#fbb540"/><path d="m167.230469 283.785156c-2.492188 2.234375-4.535157 4.921875-6.023438 7.917969l-24.703125 50.398437c-4.410156 9.035157-13.566406 14.777344-23.617187 14.820313-10.050781.039063-19.253907-5.628906-23.734375-14.625l-25.394532-50.800781c-2.738281-5.480469-7.300781-9.835938-12.902343-12.320313l24.800781 101.734375 22.296875 2.5625 86.503906-29.113281zm0 0" fill="#62666a"/><path d="m184.457031 468.910156h-136l-40-176h31.671875c10.007813-.003906 19.15625 5.648438 23.628906 14.601563l25.394532 50.800781c4.472656 8.953125 13.625 14.605469 23.632812 14.597656 10.082032.003906 19.285156-5.734375 23.71875-14.789062l24.703125-50.402344c4.429688-9.0625 13.632813-14.808594 23.71875-14.808594h31.53125zm0 0" fill="#d9d9d9"/><path d="m88.457031 428.910156h-49.089843l3.632812 16h45.457031zm0 0" fill="#eaeae8"/><path d="m104.457031 428.910156h16v16h-16zm0 0" fill="#eaeae8"/><path d="m8.457031 284.910156c-2.433593 0-4.738281 1.109375-6.253906 3.011719-1.519531 1.902344-2.089844 4.390625-1.546875 6.765625l40 176c.828125 3.640625 4.066406 6.222656 7.800781 6.222656h136c3.863281 0 7.179688-2.761718 7.871094-6.566406l32-176c.425781-2.335938-.210937-4.738281-1.730469-6.558594-1.519531-1.820312-3.769531-2.875-6.140625-2.875h-31.53125c-2.996093.015625-5.980469.425782-8.871093 1.226563l-7.847657-32.121094-2.527343-10.351563-11.382813-46.640624-.050781-.113282-3.390625-13.796875c-5.605469-22.9375-18.835938-43.289062-37.519531-57.722656l-11.625-9.015625-11.070313-45.34375c9.777344-6.382812 13.523437-18.886719 8.867187-29.59375-4.660156-10.707031-16.367187-16.492188-27.699218-13.6875l-3.800782-15.535156c-2.089843-8.585938-10.75-13.851563-19.335937-11.757813l-15.550781 3.789063c-8.578125 2.105468-13.824219 10.761718-11.730469 19.335937l3.792969 15.554688c-11.46875 2.59375-19.328125 13.167969-18.511719 24.898437.816406 11.726563 10.066406 21.109375 21.785156 22.09375l.300781 1.253906v.3125l10.761719 43.894532-6.265625 13.320312c-9.898437 21.4375-12.277344 45.589844-6.75 68.546875l17.550782 71.726563c-1.304688-.164063-2.613282-.253906-3.925782-.273438zm198.398438 16-29.070313 160h-122.929687l-3.632813-16h37.234375v-16h-40.890625l-29.085937-128h21.648437c6.980469-.027344 13.371094 3.921875 16.46875 10.175782l25.402344 50.800781c5.792969 11.695312 17.734375 19.074219 30.785156 19.023437 13.105469-.058594 25.058594-7.519531 30.871094-19.269531l24.703125-50.402344c3.113281-6.308593 9.53125-10.308593 16.566406-10.328125zm-51.046875-30.144531-46.632813 11.378906-3.792969-15.546875 46.632813-11.375.121094.488282zm-7.59375-31.085937-46.625 11.375-7.535156-31.085938 46.617187-11.371094zm-93.832032-114.769532-10-41.046875 31.089844-7.582031 10.015625 41.023438-14.3125 9.023437zm-1.925781-108.902344 3.796875 15.535157-7.773437 1.894531-7.753907 1.875-3.785156-15.519531zm-29.355469 48.335938c-1.042968-4.292969 1.589844-8.617188 5.882813-9.664062l46.621094-11.367188c.621093-.148438 1.257812-.226562 1.898437-.226562 4.015625.03125 7.382813 3.035156 7.875 7.019531.492188 3.988281-2.042968 7.71875-5.929687 8.726562l-46.640625 11.359375-.097656.046875c-4.269532 1.003907-8.554688-1.617187-9.601563-5.878906zm18.953126 145.367188c-4.671876-19.425782-2.664063-39.855469 5.703124-58l5.082032-10.808594 19.65625 1.601562h.664062c1.511719 0 2.992188-.425781 4.269532-1.234375l16.699218-10.535156 9.414063 7.296875c15.824219 12.21875 27.027343 29.453125 31.769531 48.871094l1.503906 6.144531-54.402344 13.265625c-4.292968 1.042969-6.929687 5.375-5.878906 9.671875l9.519532 38.863281 9.488281 38.863282c.875 3.578124 4.078125 6.097656 7.761719 6.105468.644531 0 1.285156-.078125 1.910156-.234375l54.402344-13.269531 1.925781 7.894531c-3.105469 2.832031-5.660157 6.214844-7.535157 9.976563l-24.703124 50.398437c-3.109376 6.296875-9.503907 10.292969-16.519532 10.328125-6.984375.027344-13.375-3.917968-16.472656-10.175781l-25.402344-50.800781c-2.058594-4.105469-4.917968-7.761719-8.40625-10.75zm0 0"/><path d="m335.335938 372.238281c10.179687-10.613281 15.511718-24.972656 14.71875-39.664062l-2.582032-51.613281-3.015625-60.449219c-.214843-4.261719-3.734375-7.605469-8-7.601563h-80c-4.269531-.003906-7.789062 3.339844-8 7.601563l-2.617187 52.457031-2.976563 59.597656c-1.40625 27.535156 18.328125 51.632813 45.601563 55.679688v72.664062h-24.007813c-4.421875 0-8 3.582032-8 8 0 4.417969 3.578125 8 8 8h64c4.417969 0 8-3.582031 8-8 0-4.417968-3.582031-8-8-8h-24v-72.65625c11.800781-1.714844 22.675781-7.355468 30.878907-16.015625zm-6.488282-143.328125 2.328125 46.527344c-11.847656 2.78125-24.292969 1.351562-35.199219-4.046875-10.441406-5.175781-22.03125-7.597656-33.671874-7.03125l1.757812-35.449219zm-69.992187 104.457032 2.648437-52.96875c9.421875-.722657 18.863282 1.109374 27.328125 5.304687 13.371094 6.625 28.535157 8.710937 43.199219 5.9375l2.089844 41.726563c.8125 13.957031-6.171875 27.214843-18.140625 34.441406-11.96875 7.222656-26.953125 7.222656-38.921875 0-11.972656-7.226563-18.953125-20.484375-18.140625-34.441406zm0 0"/><path d="m475.710938 332.574219-5.601563-112.0625c-.210937-4.261719-3.730469-7.605469-8-7.601563h-80c-4.265625-.003906-7.785156 3.339844-8 7.601563l-5.597656 112.0625c-1.40625 27.535156 18.328125 51.632812 45.597656 55.679687v72.65625h-24c-4.417969 0-8 3.582032-8 8 0 4.417969 3.582031 8 8 8h64c4.421875 0 8-3.582031 8-8 0-4.417968-3.578125-8-8-8h-24v-72.65625c11.554687-1.6875 22.222656-7.140625 30.355469-15.519531.167968-.175781.359375-.320313.519531-.496094 7.539063-7.871093 12.476563-17.875 14.144531-28.648437v-.078125c.167969-1.113281.238282-2.242188.34375-3.359375.054688-.6875.167969-1.367188.207032-2.066406.113281-1.847657.121093-3.6875.03125-5.511719zm-21.207032-103.664063 2.328125 46.527344c-11.847656 2.785156-24.292969 1.351562-35.199219-4.046875-10.445312-5.175781-22.039062-7.597656-33.679687-7.03125l1.773437-35.449219zm-70 104.457032 2.648438-52.96875c9.417968-.726563 18.855468 1.109374 27.320312 5.304687 13.371094 6.625 28.535156 8.710937 43.199219 5.9375l2.09375 41.726563c.554687 10.308593-3.1875 20.386718-10.335937 27.839843-.398438.425781-.878907.71875-1.292969 1.121094-11.113281 10.671875-27.609375 13.484375-41.628907 7.101563-14.019531-6.386719-22.726562-20.675782-21.972656-36.0625zm0 0"/><path d="m192.457031 124.910156h16v16h-16zm0 0"/><path d="m168.457031 148.910156h16v16h-16zm0 0"/><path d="m216.457031 148.910156h16v16h-16zm0 0"/><path d="m192.457031 172.910156h16v16h-16zm0 0"/><path d="m352.457031 68.910156h16v16h-16zm0 0"/><path d="m320.457031 100.910156h16v16h-16zm0 0"/><path d="m384.457031 100.910156h16v16h-16zm0 0"/><path d="m352.457031 132.910156h16v16h-16zm0 0"/><path d="m104.457031 428.910156h16v16h-16zm0 0"/></svg>