<svg height="512" viewBox="0 0 60 60" width="512" xmlns="http://www.w3.org/2000/svg"><g id="Page-1" fill="none" fill-rule="evenodd"><g id="007---Dairy-Product-Price" fill-rule="nonzero"><path id="Shape" d="m45 37v20c-.0032948 1.1032019-.8967981 1.9967052-2 2h-40c-1.10320187-.0032948-1.9967052-.8967981-2-2v-20z" fill="#ffdc00"/><path id="Shape" d="m42 37v20c-.0032948 1.1032019-.8967981 1.9967052-2 2h3c1.1032019-.0032948 1.9967052-.8967981 2-2v-20z" fill="#fec108"/><path id="Shape" d="m45 37h-44s1.82-6.62 10.67-9.6c.8125159-.2747487 1.6911495-.2852503 2.51-.03l18.82 5.88z" fill="#ffeb3a"/><circle id="Oval" cx="7" cy="43" fill="#ff9801" r="2"/><circle id="Oval" cx="14.5" cy="50.5" fill="#ff9801" r="2.5"/><circle id="Oval" cx="25" cy="42" fill="#ff9801" r="2"/><circle id="Oval" cx="37" cy="52" fill="#ff9801" r="3"/><path id="Shape" d="m59 44v11c0 2.209139-1.790861 4-4 4h-12c1.1032019-.0032948 1.9967052-.8967981 2-2v-13z" fill="#ff9801"/><path id="Shape" d="m56 44v11c0 2.209139-1.790861 4-4 4h3c2.209139 0 4-1.790861 4-4v-11z" fill="#f57c00"/><path id="Rectangle-path" d="m34 12.222h26v12h-26z" fill="#ff9801"/><path id="Rectangle-path" d="m56 12h3v12h-3z" fill="#f57c00"/><path id="Shape" d="m59 12h-26l13-8z" fill="#f57c00"/><path id="Shape" d="m59 24v20h-14v-7l-12-3.75v-9.25z" fill="#00bcd4"/><path id="Rectangle-path" d="m56 24h3v20h-3z" fill="#0377bc"/><path id="Shape" d="m12 23 4 8 4-8h7c1.1032019-.0032948 1.9967052-.8967981 2-2v-14c-.0032948-1.10320187-.8967981-1.9967052-2-2h-22c-1.10320187.0032948-1.9967052.89679813-2 2v14c.0032948 1.1032019.89679813 1.9967052 2 2z" fill="#a4c400"/><path id="Shape" d="m17 23-2.5 5 1.5 3 4-8h-1.66z" fill="#90ac00"/><path id="Shape" d="m27 5h-3c1.1032019.0032948 1.9967052.89679813 2 2v14c-.0032948 1.1032019-.8967981 1.9967052-2 2h3c1.1032019-.0032948 1.9967052-.8967981 2-2v-14c-.0032948-1.10320187-.8967981-1.9967052-2-2z" fill="#90ac00"/><circle id="Oval" cx="12" cy="11" fill="#f5f5f5" r="2"/><circle id="Oval" cx="20" cy="17" fill="#f5f5f5" r="2"/><circle id="Oval" cx="17" cy="42" fill="#000" r="1"/><circle id="Oval" cx="6" cy="53" fill="#000" r="1"/><circle id="Oval" cx="25" cy="54" fill="#000" r="1"/><circle id="Oval" cx="39" cy="42" fill="#000" r="1"/><circle id="Oval" cx="32" cy="47" fill="#000" r="1"/><circle id="Oval" cx="20" cy="33" fill="#000" r="1"/><circle id="Oval" cx="9" cy="33" fill="#000" r="1"/><path id="Shape" d="m39 17h-2c-.5522847 0-1-.4477153-1-1s.4477153-1 1-1h2c.5522847 0 1 .4477153 1 1s-.4477153 1-1 1z" fill="#f5f5f5"/><path id="Shape" d="m54 17h-10c-.5522847 0-1-.4477153-1-1s.4477153-1 1-1h10c.5522847 0 1 .4477153 1 1s-.4477153 1-1 1z" fill="#f5f5f5"/><g fill="#000"><path id="Shape" d="m15 11c0-1.65685425-1.3431458-3-3-3s-3 1.34314575-3 3c0 1.6568542 1.3431458 3 3 3s3-1.3431458 3-3zm-4 0c0-.5522847.4477153-1 1-1s1 .4477153 1 1-.4477153 1-1 1-1-.4477153-1-1z"/><path id="Shape" d="m17 17c0 1.6568542 1.3431458 3 3 3s3-1.3431458 3-3-1.3431458-3-3-3-3 1.3431458-3 3zm4 0c0 .5522847-.4477153 1-1 1s-1-.4477153-1-1 .4477153-1 1-1 1 .4477153 1 1z"/><path id="Shape" d="m20.707 9.293c-.3904999-.39038194-1.0235001-.39038194-1.414 0l-8 8c-.2599566.2510745-.3642126.6228779-.2726972.9725073.0915155.3496295.3645604.6226744.7141899.7141899.3496294.0915154.7214328-.0127406.9725073-.2726972l8-8c.3903819-.3904999.3903819-1.02350015 0-1.414z"/><path id="Shape" d="m7 40c-1.65685425 0-3 1.3431458-3 3s1.34314575 3 3 3 3-1.3431458 3-3-1.34314575-3-3-3zm0 4c-.55228475 0-1-.4477153-1-1s.44771525-1 1-1 1 .4477153 1 1-.44771525 1-1 1z"/><path id="Shape" d="m14.5 47c-1.9329966 0-3.5 1.5670034-3.5 3.5s1.5670034 3.5 3.5 3.5 3.5-1.5670034 3.5-3.5-1.5670034-3.5-3.5-3.5zm0 5c-.8284271 0-1.5-.6715729-1.5-1.5s.6715729-1.5 1.5-1.5 1.5.6715729 1.5 1.5-.6715729 1.5-1.5 1.5z"/><path id="Shape" d="m25 40c-1.6568542 0-3 1.3431458-3 3s1.3431458 3 3 3 3-1.3431458 3-3-1.3431458-3-3-3zm0 4c-.5522847 0-1-.4477153-1-1s.4477153-1 1-1 1 .4477153 1 1-.4477153 1-1 1z"/><path id="Shape" d="m37 48c-2.209139 0-4 1.790861-4 4s1.790861 4 4 4 4-1.790861 4-4-1.790861-4-4-4zm0 6c-1.1045695 0-2-.8954305-2-2s.8954305-2 2-2 2 .8954305 2 2-.8954305 2-2 2z"/><path id="Shape" d="m59.938 11.692c-.0205783-.0604445-.0470384-.1187238-.079-.174-.0281432-.0545229-.0616415-.1061104-.1-.154-.044446-.0519288-.0944062-.0988713-.149-.14-.03-.023-.049-.055-.082-.076l-12.528-7.707v-2.441c0-.55228475-.4477153-1-1-1s-1 .44771525-1 1v2.441l-12.524 7.707c-.033.021-.052.053-.082.076-.0545938.0411287-.104554.0880712-.149.14-.0789492.0983061-.1408112.2091844-.183.328-.0200345.0651495-.0334359.1321564-.04.2-.0092426.0355846-.0165863.0716355-.022.108v19.89l-13.256-4.143 1.874-3.747h6.382c1.6568542 0 3-1.3431458 3-3v-14c0-1.65685425-1.3431458-3-3-3h-22c-1.65685425 0-3 1.34314575-3 3v14c0 1.6568542 1.34314575 3 3 3h6.382l1.111 2.223c-.3880021.0336001-.7710407.1104091-1.142.229-9.251 3.114-11.235 9.992-11.315 10.283-.0059823.0437458-.0089892.0878471-.009.132-.0120657.0436554-.02108737.0880955-.027.133v20c0 1.6568542 1.34314575 3 3 3h52c2.7600532-.0033061 4.9966939-2.2399468 5-5v-43c-.0053076-.0373728-.0126519-.074428-.022-.111-.0067622-.0668315-.0201617-.1328236-.04-.197zm-13.938-6.518 9.467 5.826h-18.934zm-12 7.826h24v10h-24zm0 12h24v18h-12v-6c0-.017-.009-.031-.01-.048-.0064121-.067866-.0198165-.1348883-.04-.2-.0123551-.0598118-.030094-.1183836-.053-.175-.0659967-.1083235-.1412798-.2107085-.225-.306-.0453774-.0378983-.0942654-.0713832-.146-.1-.0578947-.040462-.1203177-.0740228-.186-.1-.015-.006-.026-.019-.042-.024l-11.298-3.532zm-29-3c-.55228475 0-1-.4477153-1-1v-14c0-.55228475.44771525-1 1-1h22c.5522847 0 1 .44771525 1 1v14c0 .5522847-.4477153 1-1 1h-7c-.379026-.0001766-.7255754.2139484-.895.553l-3.105 6.211-3.1-6.211c-.1702259-.3406694-.5191744-.5550788-.9-.553zm6.986 6.349c.4876907-.1617039 1.0078237-.2001814 1.514-.112l1.605 3.21c.1691635.3394145.5157659.5539339.895.5539339s.7258365-.2145194.895-.5539339l.943-1.887 20.609 6.44h-35.959c.968-1.944 3.512-5.636 9.498-7.651zm21.014 29.651h-30c-.55228475 0-1-.4477153-1-1v-19h42v19c0 .5522847-.4477153 1-1 1zm22 0h-9.184c.1184378-.320257.1806856-.6585603.184-1v-12h12v10c0 1.6568542-1.3431458 3-3 3z"/></g></g></g></svg>